<?xml version="1.0" encoding="UTF-8"?>
<svg id="uuid-cd494550-d140-4d55-b8a2-0e829849c2d6" 
xmlns="http://www.w3.org/2000/svg" viewBox="0 0 383.95439 85.19883">
<g id="uuid-d07eb502-0070-4064-89c0-cfbf8c7d9f4a"><g>
<path d="M32.37822,58.15974c-.39014-.98724-2.72858-4.88409-2.80664-5.58054-.07785-.47308-.31204-.6698-.93558-.69434-.62326-.02451-.77933,.1561-.93549,.61551-.23395,.68857-.38959,1.38193-.7793,3.21906-.31204,1.46829-.00021,1.85751,0,2.55499-.00003,.69864-1.1694,1.3118-2.72855,1.19809-1.16934-.08365-3.50833-.16068-5.457-.30161-3.11835-.22549-8.57507-.70566-15.98145-1.23578-1.55896-.11356-2.96271-.83322-2.72855-1.64197,.39001-1.21524,.31189-2.67001,.39011-3.49335,1.16895-9.88315,2.33832-13.4841,2.72855-16.84348,.23401-1.8891,1.1687-4.03394,1.16895-4.8793,.00006-1.05139,.77979-2.57452,.77975-3.21103-.00012-.84357,1.16956-1.68903,3.11819-1.78879,1.16931-.03952,8.88696-.72525,14.18848-1.11002,1.32513-.09747,8.41901-.42096,11.92722-.66949,1.55923-.11407,2.72861,.77142,2.72855,1.2569-.00003,.72559,.38968,1.1842,.77975,2.37549,.31149,.95883,1.16879,1.42722,2.72855,5.73392,.15573,.53421,.38943,1.01828,1.16895,.99609,.77975-.02249,1.0137-.2764,1.16943-.82642,.39014-1.24622,1.9494-3.79266,2.72852-6.09103,.62378-1.78598,1.16931-2.32639,1.1694-3.07974,.00015-.50061,1.16965-1.53961,2.72855-1.65417,1.40341-.1012,3.97574-.23621,6.6265-.37442,2.65045-.08612,5.30072-.22137,6.6264-.31595,1.55893-.10986,8.18491-.80017,12.47314-1.11115,1.94882-.14304,3.50778,.75693,3.50784,4.14267-.00009,1.40244,1.3251,5.5759,1.55905,7.84155,1.16965,11.85641,2.72849,17.63644,2.72855,23.6416,.00012,1.42834,.38959,3.45276,.38965,4.59857-.00006,.86099-1.16888,2.20865-2.72852,2.09393-14.81158-1.06009-17.53986-1.09708-19.09912-1.21039-1.94888-.14136-2.72836-.35516-3.89795-.43878-1.16916-.08496-1.94925-.92047-1.94925-1.43863-.00027-1.81903-.38956-3.92163-.7793-6.26965-.07812-.57376-.54565-1.16208-1.1694-1.18665-.77933-.03094-1.01315,.32007-1.16943,1.08368-.07745,.51602-1.87109,3.49966-2.72852,4.70993-1.24713,1.75311-2.7287,2.34692-5.06689,2.17892-2.3389-.16617-5.06723-.11948-8.57565-.56665-1.16904-.13324-3.35196-.81763-3.89749-2.2276Z"/><path d="M91.23271,20.17415c2.33868-.22809,7.01648-.32257,9.27686-.60379,2.33878-.35416,3.66415,1.57095,3.58646,2.80313-.15613,2.15131-.15619,7.34644,0,10.70697,.15558,4.04242-.62384,12.17316-.15628,14.43701,.23386,1.1658,.54593,1.47916,2.10498,1.5123,1.55899,.03384,1.94882-.08365,1.55908-2.62671-.15567-.80228,.3895-7.54947,0-10.94809-.46765-3.76376-.54541-10.48428-.38965-13.27448,.15567-2.16995,1.48129-3.06693,4.8335-3.55997,1.79279-.25653,6.08063-.11859,8.0293-.44788,4.28735-.7659,5.30121,1.89401,5.84671,6.11716,.31201,2.53784-.15582,17.65228-.15579,19.60443,0,1.95441,.54572,10.92523,.38965,15.63141-.15619,5.89194-4.13098,6.71249-7.63965,6.83884-3.19632,.02191-9.43259-.80573-13.64258-.92206-1.94873-.0213-8.18555-.89337-12.86279-1.16547-4.98901-.32138-7.09412-5.06198-6.93799-7.05707,.15561-1.83905-.23398-13.52911,0-16.34561,.23349-2.64865,.15591-13.30441,.07764-15.19849-.15576-3.5524,2.18323-5.04056,6.08057-5.44278v-.05887Z"/><path d="M141.12434,16.66923c4.28751-.56729,5.69077,1.25931,8.96484,11.25308,.54578,1.72876,.85797,2.00085,1.55905,1.69598,.62408-.30286,.46802-.57898,.46777-1.49344-.00009-.70581-.62363-4.8252-.6235-9.38708-.00009-1.04907,2.18253-3.17133,4.44382-3.33975,2.96246-.2149,8.57489-.328,9.97803-.49951,4.44318-.47464,5.06757,3.33383,4.83398,6.6756-.07812,1.48251-.15625,5.84512-.15625,10.4986-.00031,8.49197,.46808,14.92563,.46777,20.47614-.00012,15.98013-.15613,17.15817-5.37891,17.14313-.7793,.01547-3.89844-.56985-6.62695-.62012-2.3381-.0242-3.74158-.48337-4.521-1.59763-3.27463-4.87885-3.04044-7.23438-4.91162-11.23492-.62378-1.49039-.62341-1.69742-1.09131-1.43503-.77966,.3913-.77911,.66797-.62354,2.065,.38968,3.49243,.70163,7.62323,.62354,8.87238-.07745,1.04346-2.10529,2.43091-3.50781,2.4649-1.94934,.27109-7.64014-.61887-11.3042-.67929-3.50809-.06235-4.52127-3.49899-4.67725-5.81131-.15588-2.18713-.54523-6.28601-.31201-9.24173,.23386-3.02292,.23386-13.84097,.07812-17.52744-.15573-3.55304,.15579-9.69183,.23392-12.79819,.07806-2.96286,3.11829-5.03244,5.457-5.07318,2.33905-.03366,5.06757-.22653,6.6265-.40619Z"/><path d="M193.35478,12.5475c3.89746-.28421,8.96521-.25089,10.52344-.36072,5.6134-.41779,9.19897,2.59546,9.19922,14.10001-.00012,4.50708,.54602,6.54565,.5459,8.18878-.00018,1.64334-1.55963,2.64804-3.11816,2.90839-5.84656,.89014-10.99182,2.90887-12.86328,2.9118-1.16919,.00449-2.33862-.77695-2.33887-2.34705,0-.78601,.15625-1.57391,0-2.75073-.23364-1.72513-.31128-1.9584-1.55859-1.93109-1.55933,.03488-1.24805,1.51016-1.3252,3.93106-.07788,1.5607,.15503,9.28696,.15527,11.31833-.00006,2.02972,.00031,2.73199,1.55957,2.76697,1.16901,.02573,1.16864-.36649,1.3252-2.72253,.07837-1.57147-.15601-2.36017-.15625-3.53876-.00012-1.96301,1.1698-2.82843,3.11816-2.75031,3.50879,.16312,10.52441-.4827,12.86328-.32495,2.4953,.16049,2.88458,1.64151,2.88477,3.28632-.00018,1.80893-.38959,3.69296-.3125,5.2543,.15637,2.62781,.4679,8.97479,0,16.09772-.3114,4.82812-.62317,6.20123-4.52148,6.16437-2.33801-.00702-6.62561-.63507-9.35449-.59119-1.94922,.01804-3.50781-.33286-3.50781-1.90744,.00018-.79147-.77997-.83255-5.06738,.04507-2.72864,.5903-4.44348,.92587-5.84668,.7485-1.94885-.21622-2.33923-.0914-4.28809-.3075-5.45697-.63293-7.24945-4.62646-7.25-7.97308,0-7.45816-.46777-19.01157-.46777-22.35645-.00024-3.34509,.46802-15.27618,.46777-18.63513,.00006-2.96555,3.35223-7.67294,7.25-7.97058,4.67786-.33179,9.74536-1.08313,12.08398-1.25412Z"/><path d="M231.55204,10.21003c3.1181-.31268,4.28851,1.67664,4.28809,3.1467-.00024,2.15762,.23328,8.18649,.38965,16.82376,.078,5.17416,.85803,16.85208,.7793,19.02048-.07806,2.42184,.38959,2.60452,1.55957,2.62967,1.16943,.02466,1.01245-.41266,1.24713-3.457,.15625-2.17856-.07776-16.54233,.31146-23.96146,.23444-4.36798,.00006-8.71576,0-10.89334,.00018-1.74136,.78058-3.88638,3.50879-4.17194,4.36536-.49054,10.52344-.5733,13.6416-.97443,1.94958-.23196,3.89844,.63016,3.89844,2.91229,.00024,2.27917-.15674,3.92975-.38965,5.94568-.78027,6.41635-1.3252,20.08072-2.72852,29.12488-1.94891,12.63971-1.55988,14.8736-2.33887,18.90546-.62439,3.12189-.38965,5.38287-.38965,7.18512,.00037,2.25293-1.24731,3.33661-5.45703,3.21048-3.43036-.07224-21.28192-1.6987-25.33594-1.81686-2.80658-.12012-4.28815-1.64374-4.28809-3.64154-.00012-1.25104-.38916-5.02502-.7793-7.53824-.70221-4.60477-.77924-7.60147-1.55957-14.16748-.77924-6.81128-1.55865-18.63464-2.72852-26.81461-.31146-2.04584-.77972-4.32239-.7793-6.13062,.00006-3.85977,2.72845-4.47208,4.75586-4.45163,3.42981,.00543,9.43213-.58746,12.39453-.88538Z"/><path d="M272.63414,7.27556c1.94806-.60641,4.28717-.49661,6.62592-.4733,3.50806,.03195,3.50757,2.03561,3.74225,5.45227,.23285,3.80087,.15631,16.67545,.54584,22.8717,.38953,6.19232,.54504,35.62793,.38965,38.8663-.15662,3.23874-1.63782,3.70584-4.36615,3.88852-3.81952,.19534-5.45709-.76828-7.32715-.62033-1.48145,.08023-4.13196-.01895-5.45709-.20706-3.50879-.53448-3.89844-4.12567-4.05371-9.16364-.15619-4.67581-.31232-22.40988-.15625-28.26083,.15625-6.03491,.15625-19.20929,.07812-25.23956-.07819-5.11389,1.0141-6.10291,4.91113-6.75211,1.94958-.32571,3.58594,.11557,5.06744-.36197Z"/><path d="M303.27079,5.08717c2.33783-.27341,4.67682,2.86057,4.67676,7.67291,0,6.71228-.7793,17.53998-.7793,23.53061-.00006,2.20245-.77924,10.09167-.7793,12.48294-.00018,1.49661,.00043,2.49442,.7793,2.50809,.77917,.01376,1.16907-.4805,2.33893-.46127,1.94891,.03024,2.33856,2.05325,2.57227,4.58133,.15576,2.02258-.1554,6.04749,.15619,8.58133,.38934,3.04599-.15594,9.68082-.15619,12.09921-.00018,2.42233-1.16876,3.4509-3.35156,3.79465-2.18365,.34146-5.84784-.81741-8.57623-.61499-2.5719,.2092-5.06641-.36514-8.5752-.7121-3.50793-.35681-5.30066-4.6084-5.22266-9.87454,.07812-5.2818-.38977-27.92914-.07812-31.95663,.31165-4.0332,.31165-15.07965,.15625-21.31042-.15631-6.51218,1.24738-9.009,4.36523-9.43011,2.65063-.38519,8.57507-.41663,12.47363-.89099Z"/><path d="M330.94462,3.11049c2.3382-.27875,4.67706,3.02954,4.67676,8.09537-.00012,7.06635-.77917,18.46436-.7793,24.77185-.00031,2.31854-.77899,10.62524-.77936,13.14316-.00024,1.57541-.00012,2.62662,.77936,2.64011,.77948,.01361,1.16925-.50641,2.33893-.48767,1.94879,.03018,2.33844,2.15884,2.57227,4.819,.15649,2.12823-.15552,6.36438,.15619,9.03024,.38983,3.20453-.15594,10.18781-.15619,12.73306,.00012,2.54929-1.16858,3.63589-3.35156,4.00595-2.18359,.36774-5.84778-.83875-8.57629-.61505-2.57245,.22998-5.06622-.36517-8.57513-.71744-3.50775-.36258-5.30096-4.84085-5.2226-10.3974,.07782-5.57239-.38922-29.46588-.07819-33.71539,.31122-4.25488,.31122-15.90924,.15625-22.48294-.15674-6.87146,1.24731-9.49994,4.36517-9.93188,2.6507-.39581,8.57513-.40588,12.47369-.89096Z"/><path d="M361.73655,.46931c1.55829-.11499,10.91388-.34027,12.47278-.44922,3.11816-.22623,4.91077,1.46396,4.91107,4.76416-.00012,2.27316,.31262,4.41476,.54584,7.36154,.38971,5.10449,.38959,11.3573,1.17004,21.60156,1.48035,19.94479,1.71472,29.47549,2.33789,37.16229,.39038,4.59671,.7804,5.76743,.78021,10.35104,.00006,4.01447-2.18268,4.19666-4.6778,3.78943-2.33868-.39639-7.40631-.7565-11.6933-.95248-2.33893-.05795-3.89862-1.38919-3.8985-3.04758-.00043-2.76819-.00018-6.64636-.38965-11.09174-.1554-2.10934-.38977-2.56216-1.55859-2.6127-1.1698-.05035-1.32532,1.37439-1.55951,4.1145-.23401,2.95941-.00012,5.5025,0,8.25427-.00012,2.20486-2.33862,3.79697-4.28705,3.54471-1.55981-.43839-9.66699-.69138-12.08405-.86658-1.94855-.14102-3.50751-1.31711-3.50775-3.97092,.00024-2.12531,.15601-2.43359,.38965-5.29175,.54614-7.09616,1.24683-19.08731,2.33881-34.04163,1.16888-15.50238,1.24701-20.34552,1.55951-26.24429,.1546-2.68478,.38971-3.77072,.38965-5.91403-.00012-3.21014,1.94824-4.95728,5.45709-5.21149,2.72815-.19315,8.96484-1.07858,11.30365-1.24911Zm-1.94916,41.16513c-.15594,1.75906,.3891,2.31046,1.55951,2.31451,1.55847,.00555,1.94836-.54816,1.71497-2.64966-.62427-6.19122-.54578-11.15973-1.71497-11.13562-1.16986,.02457-1.01422,4.97842-1.55951,11.47076Z"/></g></g></svg>